<svg xmlns="http://www.w3.org/2000/svg" viewBox="0 0 100 100">
  <rect x="10" y="20" width="80" height="70" rx="8" fill="#3b82f6" stroke="#1e40af" stroke-width="3"/>
  <rect x="10" y="20" width="80" height="18" rx="8" fill="#1e40af"/>
  <rect x="10" y="30" width="80" height="8" fill="#1e40af"/>
  <circle cx="30" cy="10" r="6" fill="#64748b"/>
  <circle cx="70" cy="10" r="6" fill="#64748b"/>
  <rect x="27" y="5" width="6" height="20" rx="2" fill="#64748b"/>
  <rect x="67" y="5" width="6" height="20" rx="2" fill="#64748b"/>
  <g fill="#fff">
    <rect x="22" y="48" width="14" height="10" rx="2"/>
    <rect x="43" y="48" width="14" height="10" rx="2"/>
    <rect x="64" y="48" width="14" height="10" rx="2"/>
    <rect x="22" y="66" width="14" height="10" rx="2"/>
    <rect x="43" y="66" width="14" height="10" rx="2"/>
    <rect x="64" y="66" width="14" height="10" rx="2"/>
  </g>
</svg>
